HIERARCHY
ROOT Hips
{
	OFFSET -0.179506 -22.333345 2.821913
	CHANNELS 6 Xposition Yposition Zposition Zrotation Yrotation Xrotation 
	JOINT LeftUpLeg
	{
		OFFSET 6.951974 -9.140623 -0.681533
		CHANNELS 3 Zrotation Yrotation Xrotation
		JOINT LeftLeg
		{
			OFFSET 3.427654 -37.519855 -0.449580
			CHANNELS 3 Zrotation Yrotation Xrotation
			JOINT LeftFoot
			{
				OFFSET -1.359570 -39.796059 -4.369333
				CHANNELS 3 Zrotation Yrotation Xrotation
				JOINT LeftToe
				{
					OFFSET 2.635814 -5.579078 11.928840
					CHANNELS 3 Zrotation Yrotation Xrotation
					End Site
					{
						OFFSET 0.000000 0.000000 0.000000
					}
				}
			}
		}
	}
	JOINT RightUpLeg
	{
		OFFSET -6.767048 -9.052170 -0.431982
		CHANNELS 3 Zrotation Yrotation Xrotation
		JOINT RightLeg
		{
			OFFSET -3.829005 -38.256897 -0.885003
			CHANNELS 3 Zrotation Yrotation Xrotation
			JOINT RightFoot
			{
				OFFSET 1.577377 -39.841461 -4.231180
				CHANNELS 3 Zrotation Yrotation Xrotation
				JOINT RightToe
				{
					OFFSET -2.537174 -4.814398 12.334795
					CHANNELS 3 Zrotation Yrotation Xrotation
					End Site
					{
						OFFSET 0.000000 0.000000 0.000000
					}
				}
			}
		}
	}
	JOINT Spine
	{
		OFFSET -0.253288 10.896323 -2.669631
		CHANNELS 3 Zrotation Yrotation Xrotation
		JOINT Spine1
		{
			OFFSET 0.548704 13.518043 0.109247
			CHANNELS 3 Zrotation Yrotation Xrotation
			JOINT Spine2
			{
				OFFSET 0.145701 5.292222 2.542457
				CHANNELS 3 Zrotation Yrotation Xrotation
				JOINT Neck
				{
					OFFSET -0.277840 21.387037 -4.285703
					CHANNELS 3 Zrotation Yrotation Xrotation
					JOINT Head
					{
						OFFSET 0.515184 6.496960 5.134897
						CHANNELS 3 Zrotation Yrotation Xrotation
						End Site
						{
							OFFSET 0.000000 0.000000 0.000000
						}
					}
				}
				JOINT LeftShoulder
				{
					OFFSET 7.884473 12.174932 -3.408961
					CHANNELS 3 Zrotation Yrotation Xrotation
					JOINT LeftArm
					{
						OFFSET 9.097692 3.046888 -0.886815
						CHANNELS 3 Zrotation Yrotation Xrotation
						JOINT LeftForeArm
						{
							OFFSET 25.961220 -1.277207 -2.745643
							CHANNELS 3 Zrotation Yrotation Xrotation
							JOINT LeftHand
							{
								OFFSET 24.923361 0.898606 -0.117091
								CHANNELS 3 Zrotation Yrotation Xrotation
								End Site
								{
									OFFSET 0.000000 0.000000 0.000000
								}
							}
						}
					}
				}
				JOINT RightShoulder
				{
					OFFSET -8.175920 11.883285 -3.861528
					CHANNELS 3 Zrotation Yrotation Xrotation
					JOINT RightArm
					{
						OFFSET -9.601238 3.255117 -0.914307
						CHANNELS 3 Zrotation Yrotation Xrotation
						JOINT RightForeArm
						{
							OFFSET -25.374195 -1.332924 -2.140099
							CHANNELS 3 Zrotation Yrotation Xrotation
							JOINT RightHand
							{
								OFFSET -25.529810 0.777228 -0.555919
								CHANNELS 3 Zrotation Yrotation Xrotation
								End Site
								{
									OFFSET 0.000000 0.000000 0.000000
								}
							}
						}
					}
				}
			}
		}
	}
}
MOTION
Frames: 10
Frame Time: 0.033333
20.735229 16.922516 90.578735 -109.487720 3.652621 84.615172 20.096983 5.004666 -5.191162 -4.931515 2.542811 18.742282 0.741844 3.572759 -18.918318 nan nan nan -14.574389 -13.804569 -3.581675 2.429110 -15.718637 11.025938 8.598222 -5.906231 -6.750296 nan nan nan -6.365727 4.849983 5.932498 7.245008 -5.338264 4.432302 3.019445 -1.045656 -0.525855 4.385270 -16.706730 7.997031 3.746488 -26.773312 20.302892 -13.966821 -13.747737 -0.538220 -62.236552 -42.195777 28.131659 -160.120670 -79.332370 -167.900164 -1.568589 -17.309247 -25.488101 18.266280 4.442955 -1.933169 33.935390 14.021793 -5.659309 -82.044046 43.304030 -60.332456 8.520081 6.726780 -2.659003 
20.732685 16.918007 90.559273 -109.482104 3.660551 84.671624 20.145330 4.979201 -5.255475 -4.979284 2.622790 18.741175 0.804008 3.580244 -18.904276 nan nan nan -14.535791 -13.778697 -3.658275 2.427264 -15.731956 11.047377 8.606392 -6.022933 -6.874583 nan nan nan -6.319279 4.792040 5.888103 7.143017 -5.307920 4.369038 2.998298 -1.008526 -0.446430 4.541319 -16.730122 7.663949 3.586627 -26.802203 20.738852 -13.845185 -13.763388 -0.512865 -62.335045 -42.149839 28.171955 -160.287927 -79.323771 -167.748072 -1.439931 -17.351935 -25.656096 18.280286 4.428884 -1.827072 34.004388 14.045275 -5.617491 -82.127479 43.161672 -60.500091 8.435436 6.880412 -2.772345 
20.735077 16.919966 90.548744 -109.471385 3.667194 84.666971 20.153391 4.976935 -5.252047 -4.979815 2.625672 18.734508 0.808861 3.579540 -18.910206 nan nan nan -14.536054 -13.790895 -3.651264 2.436383 -15.748229 11.051367 8.611048 -6.038987 -6.881753 nan nan nan -6.310230 4.777589 5.903083 7.127861 -5.312325 4.347386 2.998298 -1.010543 -0.445611 4.546346 -16.737485 7.629298 3.541953 -26.807187 20.822877 -13.836743 -13.754658 -0.512703 -62.352675 -42.141569 28.174347 -160.220056 -79.319521 -167.803490 -1.427953 -17.357407 -25.655016 18.288522 4.432795 -1.818792 34.003258 14.063332 -5.613069 -82.115491 43.156241 -60.481252 8.421135 6.890248 -2.732589 
20.754686 16.927816 90.542557 -109.439071 3.681824 84.693961 20.181138 4.998458 -5.300896 -4.992992 2.639262 18.734992 0.832208 3.543429 -18.934023 nan nan nan -14.546177 -13.860266 -3.712611 2.479854 -15.855425 11.138430 8.593616 -6.086897 -6.929472 nan nan nan -6.275086 4.724504 5.941662 7.090234 -5.327117 4.262206 2.987525 -1.027041 -0.462774 4.534437 -16.755469 7.523195 3.381646 -26.864861 21.140337 -13.842032 -13.702925 -0.531760 -62.409221 -42.095930 28.184883 -159.894052 -79.310815 -168.072905 -1.409863 -17.338019 -25.611133 18.348358 4.478347 -1.748431 33.980107 14.120846 -5.620294 -82.083911 43.124144 -60.385316 8.425678 6.904677 -2.534727 
20.775816 16.942478 90.558044 -109.397446 3.669042 84.736514 20.180693 5.063448 -5.410379 -5.058886 2.708653 18.808357 0.900674 3.477998 -18.948382 nan nan nan -14.540514 -13.923957 -3.741580 2.487710 -15.852410 11.136590 8.577168 -6.138886 -6.930885 nan nan nan -6.227869 4.723174 5.937436 7.027627 -5.327715 4.200863 2.956991 -1.082833 -0.423114 4.573635 -16.787172 7.324110 3.286231 -26.884471 21.398085 -13.770928 -13.625509 -0.535982 -62.484942 -42.104450 28.167588 -159.554957 -79.245833 -168.386677 -1.381137 -17.324348 -25.644647 18.387335 4.441463 -1.708080 33.983125 14.138781 -5.582282 -82.088492 43.185230 -60.408440 8.405761 6.969855 -2.265759 
20.809738 17.002169 90.519821 -109.388615 3.575036 84.508836 20.218471 5.214529 -5.263470 -5.235469 2.521210 18.757562 0.874867 3.345685 -18.733513 nan nan nan -14.692976 -14.075299 -3.563078 2.494120 -15.835526 11.206666 8.205246 -5.958524 -7.155584 nan nan nan -6.255668 4.591660 6.136107 6.855527 -5.731238 5.534533 2.861918 -0.687046 -1.551422 4.864787 -16.531972 7.072443 3.442841 -26.920882 20.998126 -13.261558 -13.131960 -0.767095 -62.998012 -42.242013 28.222624 -158.575783 -79.215663 -169.120641 -1.490852 -17.788576 -25.856418 18.281406 4.310364 -1.708077 34.436705 14.611402 -5.681781 -82.040848 43.466089 -59.754407 8.532215 7.042684 -1.483954 
20.798107 17.020527 90.515381 -109.378746 3.604909 84.489988 20.291931 5.314769 -5.207292 -5.304152 2.540620 18.651809 0.779109 3.335725 -18.586031 nan nan nan -14.682489 -14.129834 -3.552933 2.545609 -15.842181 11.190095 8.155868 -5.995180 -7.166258 nan nan nan -6.225697 4.648368 6.195755 6.857467 -5.668209 5.528602 2.924906 -0.810094 -1.631961 4.815569 -16.555587 7.059538 3.468292 -26.889178 20.919263 -13.222150 -13.174743 -0.665372 -63.084057 -42.235655 28.150019 -158.266344 -79.220189 -169.270582 -1.417263 -17.795561 -25.895972 18.198034 4.240205 -1.760433 34.473695 14.648532 -5.700865 -81.925748 43.706686 -59.224487 8.336815 6.880649 -0.858630 
20.788069 17.022764 90.506569 -109.396331 3.620272 84.433143 20.346361 5.340565 -5.049744 -5.331618 2.495599 18.520903 0.561307 3.345368 -18.483186 nan nan nan -14.670605 -14.103850 -3.469269 2.561390 -15.814959 11.126001 8.137860 -5.969757 -7.247353 nan nan nan -6.275576 4.651521 6.174346 6.897743 -5.637202 5.588007 2.984022 -0.791908 -1.572839 4.839092 -16.543575 6.976374 3.459528 -26.990115 20.837342 -13.208404 -13.269755 -0.680180 -63.152485 -42.245039 28.197515 -158.446686 -79.292124 -169.105447 -1.403630 -17.808374 -25.871747 18.155266 4.272900 -1.780753 34.428138 14.631305 -5.743258 -81.911210 43.760692 -59.151146 8.225191 6.852924 -0.763138 
20.771870 17.032864 90.497116 -109.435198 3.552485 84.363107 20.289440 5.382098 -4.893007 -5.319370 2.462742 18.419373 0.428565 3.319966 -18.464836 nan nan nan -14.751622 -14.123747 -3.415960 2.530401 -15.780510 11.147885 8.199614 -5.840733 -7.342751 nan nan nan -6.185154 4.477343 6.490474 6.754234 -5.738551 5.412229 2.832454 -0.603135 -1.710109 4.891839 -16.419530 6.906944 3.405463 -27.015083 20.993518 -13.013118 -13.007960 -0.803156 -63.314635 -42.110608 28.248819 -157.892338 -79.200599 -169.571866 -1.315658 -17.826120 -26.095126 18.154468 4.229984 -1.774545 34.758175 14.765597 -5.609656 -81.957973 43.793228 -59.073185 8.141312 6.838748 -0.703260 
20.775856 17.046370 90.511475 -109.469098 3.542608 84.415016 20.289566 5.549887 -4.928645 -5.397832 2.263591 18.406263 0.423848 3.486845 -18.453815 nan nan nan -14.790990 -14.464794 -3.636048 2.665894 -15.874291 11.621124 7.347118 -5.906089 -7.315062 nan nan nan -6.330938 4.565701 6.013005 6.803473 -5.860135 6.336605 2.957677 -0.475742 -2.212924 4.789625 -16.603565 7.464099 3.848604 -26.881341 19.945637 -13.171551 -13.040233 -0.530696 -63.318752 -42.341897 28.225061 -157.847616 -79.328424 -169.709863 -1.432580 -18.097115 -25.897633 18.106051 4.195854 -1.514663 34.657914 14.924360 -6.110583 -81.932675 43.904546 -59.041206 8.455841 7.044294 -0.683629 
